HIERARCHY
ROOT Hips
{
	OFFSET 0.000000 0.000000 0.000000
	CHANNELS 6 Xposition Yposition Zposition Xrotation Yrotation Zrotation
	JOINT LeftUpLeg_virtual
	{
		OFFSET 0.000000 0.000000 0.000000
		CHANNELS 3 Xrotation Yrotation Zrotation
		JOINT LeftUpLeg
		{
			OFFSET 10.205400 -3.823500 0.155100
			CHANNELS 3 Xrotation Yrotation Zrotation
			JOINT LeftLeg
			{
				OFFSET 0.708757 -12.982077 0.567790
				CHANNELS 3 Xrotation Yrotation Zrotation
				JOINT LeftFoot
				{
					OFFSET -0.708756 -10.717838 -2.184338
					CHANNELS 3 Xrotation Yrotation Zrotation
					JOINT LeftToeBase
					{
						OFFSET 0.108149 -7.191104 7.560241
						CHANNELS 3 Xrotation Yrotation Zrotation
						JOINT LeftToe_End
						{
							OFFSET 0.070230 0.081724 4.490308
							CHANNELS 3 Xrotation Yrotation Zrotation
							End Site
							{
								OFFSET 0 0 0
							}
						}
					}
				}
			}
		}
	}
	JOINT RightUpLeg_virtual
	{
		OFFSET 0.000000 0.000000 0.000000
		CHANNELS 3 Xrotation Yrotation Zrotation
		JOINT RightUpLeg
		{
			OFFSET -10.205400 -3.823500 0.005500
			CHANNELS 3 Xrotation Yrotation Zrotation
			JOINT RightLeg
			{
				OFFSET -0.708756 -12.982134 0.610632
				CHANNELS 3 Xrotation Yrotation Zrotation
				JOINT RightFoot
				{
					OFFSET 0.708754 -10.717769 -1.945823
					CHANNELS 3 Xrotation Yrotation Zrotation
					JOINT RightToeBase
					{
						OFFSET -0.108140 -7.191069 7.372968
						CHANNELS 3 Xrotation Yrotation Zrotation
						JOINT RightToe_End
						{
							OFFSET -0.070227 0.081735 4.479403
							CHANNELS 3 Xrotation Yrotation Zrotation
							End Site
							{
								OFFSET 0 0 0
							}
						}
					}
				}
			}
		}
	}
	JOINT Spine_virtual
	{
		OFFSET 0.000000 0.000000 0.000000
		CHANNELS 3 Xrotation Yrotation Zrotation
		JOINT Spine
		{
			OFFSET 0.000000 6.876099 0.125700
			CHANNELS 3 Xrotation Yrotation Zrotation
			JOINT Spine1
			{
				OFFSET 0.000000 5.730043 0.104720
				CHANNELS 3 Xrotation Yrotation Zrotation
				JOINT Spine1_split
				{
					OFFSET 0.000000 5.730043 0.104720
					CHANNELS 3 Xrotation Yrotation Zrotation
					JOINT Spine2
					{
						OFFSET 0.000000 5.730043 0.104720
						CHANNELS 3 Xrotation Yrotation Zrotation
						JOINT Neck_virtual
						{
							OFFSET 0.000000 0.000000 0.000000
							CHANNELS 3 Xrotation Yrotation Zrotation
							JOINT Neck
							{
								OFFSET 0.000000 10.314075 0.188496
								CHANNELS 3 Xrotation Yrotation Zrotation
								JOINT Head
								{
									OFFSET 0.000000 7.643700 -2.377400
									CHANNELS 3 Xrotation Yrotation Zrotation
									JOINT HeadTop_End
									{
										OFFSET 0.000000 43.788605 -13.619600
										CHANNELS 3 Xrotation Yrotation Zrotation
										End Site
										{
											OFFSET 0 0 0
										}
									}
								}
							}
						}
						JOINT LeftShoulder_virtual
						{
							OFFSET 0.000000 0.000000 0.000000
							CHANNELS 3 Xrotation Yrotation Zrotation
							JOINT LeftShoulder
							{
								OFFSET 2.196100 4.412489 0.087492
								CHANNELS 3 Xrotation Yrotation Zrotation
								JOINT LeftShoulder_split
								{
									OFFSET 2.196100 4.412489 0.087492
									CHANNELS 3 Xrotation Yrotation Zrotation
									JOINT LeftArm
									{
										OFFSET 8.771219 -2.981674 -0.026999
										CHANNELS 3 Xrotation Yrotation Zrotation
										JOINT LeftForeArm
										{
											OFFSET 8.512804 0.000000 -0.000000
											CHANNELS 3 Xrotation Yrotation Zrotation
											JOINT LeftHand
											{
												OFFSET 18.484802 0.000000 -0.000000
												CHANNELS 3 Xrotation Yrotation Zrotation
												End Site
												{
													OFFSET 0 0 0
												}
											}
										}
									}
								}
							}
						}
						JOINT RightShoulder_virtual
						{
							OFFSET 0.000000 0.000000 0.000000
							CHANNELS 3 Xrotation Yrotation Zrotation
							JOINT RightShoulder
							{
								OFFSET -2.196100 4.412496 0.070690
								CHANNELS 3 Xrotation Yrotation Zrotation
								JOINT RightShoulder_split
								{
									OFFSET -2.196100 4.412496 0.070690
									CHANNELS 3 Xrotation Yrotation Zrotation
									JOINT RightArm
									{
										OFFSET -8.771282 -2.981682 -0.094208
										CHANNELS 3 Xrotation Yrotation Zrotation
										JOINT RightForeArm
										{
											OFFSET -8.494598 0.000000 0.000000
											CHANNELS 3 Xrotation Yrotation Zrotation
											JOINT RightHand
											{
												OFFSET -18.483803 0.000000 0.000001
												CHANNELS 3 Xrotation Yrotation Zrotation
												End Site
												{
													OFFSET 0 0 0
												}
											}
										}
									}
								}
							}
						}
					}
				}
			}
		}
	}
}
MOTION
Frames: 7
Frame Time: 0.03333333
0.153891 29.509336 -0.334482 0.000000 0.000000 0.000000 -5.251343 -62.406407 -3.855329 -31.283889 9.709807 33.835210 45.515735 -10.693612 -12.108650 -15.968299 -2.077663 -8.313060 -0.178177 1.354620 1.403483 0.000000 0.000000 0.000000 -6.021534 -60.643781 -3.956679 -18.873614 -11.308463 -24.991674 41.175956 6.233647 -10.232288 -23.831109 0.625066 22.619326 3.173609 -1.722338 -1.574880 0.000000 0.000000 0.000000 -5.436872 -60.263142 -3.757335 10.587842 2.159051 -1.082005 7.483765 0.395327 -5.107691 0.472959 -1.695489 1.113559 0.000000 0.000000 0.000000 7.893114 0.764494 -4.950120 -25.415767 23.233606 11.281499 -3.517365 26.341400 -3.106830 0.000000 0.000000 0.000000 9.017075 0.448706 -4.645011 -5.708254 -10.082570 -1.660090 -2.276345 -1.433447 -2.361702 -17.998240 3.489239 -34.999911 4.888565 -49.561376 2.811281 0.000000 0.000000 0.000000 8.471396 0.450687 -4.936445 -4.122435 11.639425 1.926608 1.803297 1.006539 0.956926 -38.809664 -25.178816 32.490913 -157.308436 64.967182 157.853622 0.000000 0.000000 0.000000 
0.128093 29.481892 -0.365953 0.000000 0.000000 0.000000 -4.886116 -62.308674 -3.159134 -31.020435 9.374083 33.134067 45.098663 -10.293857 -12.145172 -15.806921 -1.811907 -8.508940 0.116442 1.353050 1.315438 0.000000 0.000000 0.000000 -5.710172 -60.801217 -3.286720 -19.433637 -10.964691 -25.891446 41.308100 6.471023 -10.193607 -24.000402 0.995698 22.840364 3.105175 -1.626980 -1.546525 0.000000 0.000000 0.000000 -4.623119 -60.045115 -2.843024 10.438479 2.231715 -0.861538 7.966116 0.498260 -4.988124 0.432266 -1.646578 1.177164 0.000000 0.000000 0.000000 8.226056 0.898465 -4.885201 -23.435303 23.321005 11.662423 -2.742993 25.793016 -2.901894 0.000000 0.000000 0.000000 9.400928 0.496693 -4.549043 -5.841154 -10.680018 -2.412988 -2.130037 -1.207608 -2.349733 -16.496409 4.808796 -34.971047 5.258155 -49.919845 2.855391 0.000000 0.000000 0.000000 8.827530 0.569753 -4.746607 -4.193042 11.742469 2.587235 1.400092 0.842302 0.848665 -39.486078 -24.689020 31.117338 -157.512591 64.179873 158.317515 0.000000 0.000000 0.000000 
0.093294 29.520842 -0.377914 0.000000 0.000000 0.000000 -4.202105 -62.275684 -2.142409 -30.663250 9.046130 32.207252 44.379158 -9.901900 -12.024503 -15.467786 -1.608678 -8.957309 0.398640 1.350471 1.255878 0.000000 0.000000 0.000000 -5.214354 -60.891294 -2.402953 -19.882097 -10.811051 -26.676098 41.145097 6.519907 -10.023465 -23.962115 1.224067 23.012550 2.914789 -1.575094 -1.545448 0.000000 0.000000 0.000000 -3.732426 -59.778116 -1.828275 10.325318 2.242892 -0.785119 8.380658 0.561002 -4.867337 0.457516 -1.885888 1.218854 0.000000 0.000000 0.000000 8.583898 0.987874 -4.787314 -21.983201 23.436500 11.727945 -2.108104 25.042151 -2.901399 0.000000 0.000000 0.000000 9.747718 0.505733 -4.409408 -5.956514 -11.141849 -2.955320 -2.146791 -0.789414 -2.373755 -15.248022 5.572721 -35.050519 5.741857 -49.065644 3.027165 0.000000 0.000000 0.000000 9.074068 0.638844 -4.549032 -4.254964 11.428818 3.124572 0.878521 0.682721 0.946451 -39.998056 -23.468870 30.439168 -157.029874 64.230006 157.972850 0.000000 0.000000 0.000000 
0.061523 29.586172 -0.372555 0.000000 0.000000 0.000000 -3.487381 -62.225004 -1.112818 -30.368712 8.710878 31.225402 43.745463 -9.603798 -11.747790 -15.133235 -1.488273 -9.609471 0.494923 1.348037 1.273823 0.000000 0.000000 0.000000 -4.674915 -60.924987 -1.501233 -20.238281 -10.733329 -27.234247 41.015867 6.343659 -9.809273 -23.944867 1.245959 23.080988 2.710656 -1.570424 -1.571542 0.000000 0.000000 0.000000 -3.034910 -59.466311 -0.968917 10.305849 2.182150 -0.849448 8.721948 0.550617 -4.782231 0.564992 -2.254823 1.170723 0.000000 0.000000 0.000000 8.964320 1.000805 -4.714544 -21.156335 23.579652 11.578565 -1.561035 24.348388 -3.123600 0.000000 0.000000 0.000000 10.069688 0.444913 -4.281563 -6.033171 -11.464220 -3.268395 -2.234287 -0.305097 -2.526024 -14.539622 5.778962 -34.966143 6.038009 -47.318625 3.132652 0.000000 0.000000 0.000000 9.263430 0.617856 -4.402486 -4.296012 10.846793 3.461699 0.462810 0.561772 1.138707 -40.451246 -22.094967 30.463556 -156.729428 64.478359 157.684534 0.000000 0.000000 0.000000 
0.037733 29.636513 -0.347559 0.000000 0.000000 0.000000 -2.857942 -62.137079 -0.217228 -30.253749 8.386061 30.323164 43.477596 -9.381179 -11.405733 -14.953668 -1.441627 -10.292560 0.375198 1.354045 1.355460 0.000000 0.000000 0.000000 -4.148176 -60.830150 -0.690292 -20.467193 -10.650443 -27.584889 40.982969 5.998186 -9.638984 -24.058896 1.077324 23.094123 2.529423 -1.588717 -1.621261 0.000000 0.000000 0.000000 -2.661322 -59.193158 -0.372478 10.390451 2.056003 -1.027732 8.971272 0.461711 -4.765452 0.743789 -2.684354 1.102404 0.000000 0.000000 0.000000 9.342680 0.932355 -4.697586 -20.827178 23.734822 11.342050 -1.070779 23.860059 -3.501889 0.000000 0.000000 0.000000 10.370339 0.328785 -4.223941 -6.065996 -11.589180 -3.413526 -2.303500 0.077512 -2.671549 -14.331480 5.646810 -34.625740 5.941729 -45.258415 3.018885 0.000000 0.000000 0.000000 9.451350 0.508588 -4.364976 -4.325921 10.195959 3.590531 0.412284 0.594488 1.395920 -40.811818 -21.158246 31.122402 -157.164046 64.466283 158.004569 0.000000 0.000000 0.000000 
0.022232 29.655464 -0.305872 0.000000 0.000000 0.000000 -2.383371 -62.003843 0.486281 -30.377283 8.126092 29.587099 43.566809 -9.211473 -11.102513 -14.995153 -1.409806 -10.801586 0.164034 1.375332 1.456652 0.000000 0.000000 0.000000 -3.630205 -60.627860 0.019281 -20.580147 -10.496571 -27.788621 41.006731 5.572199 -9.569822 -24.296332 0.777183 23.127760 2.437068 -1.624487 -1.692840 0.000000 0.000000 0.000000 -2.532156 -58.959395 0.033153 10.547238 1.894862 -1.271072 9.123984 0.326853 -4.826634 0.729251 -2.843983 1.080725 0.000000 0.000000 0.000000 9.660582 0.805200 -4.756146 -20.755200 23.861785 11.106693 -0.501221 23.574668 -3.906940 0.000000 0.000000 0.000000 10.631149 0.185372 -4.267570 -6.075650 -11.524184 -3.470151 -2.328364 0.389545 -2.947614 -14.460378 5.526933 -34.085164 5.409802 -43.370721 2.666828 0.000000 0.000000 0.000000 9.636303 0.341146 -4.451270 -4.353581 9.689813 3.575560 0.668399 0.552123 1.642265 -41.002787 -20.931837 32.248188 -158.296888 64.159614 158.923230 0.000000 0.000000 0.000000 
0.003481 29.642288 -0.246065 0.000000 0.000000 0.000000 -2.004227 -61.798138 1.061422 -30.629307 8.027510 29.082508 43.834245 -9.080087 -10.932625 -15.246150 -1.407984 -11.017328 -0.040094 1.400702 1.553921 0.000000 0.000000 0.000000 -3.141513 -60.453294 0.654603 -20.665622 -10.226022 -27.976713 41.048037 5.190148 -9.611445 -24.563092 0.433342 23.229340 2.463403 -1.647868 -1.774964 0.000000 0.000000 0.000000 -2.488112 -58.798189 0.382661 10.736559 1.733888 -1.540221 9.190311 0.185070 -4.946487 0.634304 -2.853628 1.077400 0.000000 0.000000 0.000000 9.883591 0.659975 -4.883923 -20.682277 23.940284 10.924129 0.124077 23.485629 -4.203133 0.000000 0.000000 0.000000 10.818187 0.050948 -4.401593 -6.065892 -11.375404 -3.470296 -2.266181 0.669039 -3.338180 -14.697389 5.635366 -33.470659 4.626941 -41.950547 2.184799 0.000000 0.000000 0.000000 9.815921 0.165721 -4.622047 -4.385638 9.483310 3.456650 1.128887 0.378230 1.838507 -41.050007 -21.349069 33.502792 -159.692145 63.710796 160.027002 0.000000 0.000000 0.000000 
